<svg width="795" height="452" viewBox="0 0 795 452" fill="none" xmlns="http://www.w3.org/2000/svg">
    <path d="M155 20C155 14.4772 159.477 10 165 10H630C635.523 10 640 14.4772 640 20V175C640 180.523 635.523 185 630 185H165C159.477 185 155 180.523 155 175V20Z" fill="#79C842"/>
    <path fill-rule="evenodd" clip-rule="evenodd" d="M145 20C145 8.95431 153.954 7.62939e-06 165 7.62939e-06H630C641.046 7.62939e-06 650 8.95432 650 20V175C650 186.046 641.046 195 630 195H435.476C429.953 195 425.476 190.523 425.476 185C425.476 179.477 429.953 175 435.476 175H630V20H165V175H354.976C360.499 175 364.976 179.477 364.976 185C364.976 190.523 360.499 195 354.976 195H165C153.954 195 145 186.046 145 175V20Z" fill="#49454F"/>
    <path d="M224.476 441.434L353.78 277.246C355.676 274.839 358.572 273.434 361.636 273.434H429.827C432.886 273.434 435.776 274.833 437.672 277.232L567.476 441.434H224.476Z" fill="#D9D9D9"/>
    <path fill-rule="evenodd" clip-rule="evenodd" d="M345.924 271.059C349.716 266.244 355.507 263.434 361.636 263.434H429.827C435.944 263.434 441.724 266.232 445.517 271.031L588.128 451.434H203.872L345.924 271.059ZM429.827 283.434L361.636 283.434L245.08 431.434H546.823L429.827 283.434Z" fill="#49454F"/>
    <path d="M180.476 195C184.436 195 188.396 195 192.476 195C192.476 272.55 192.476 350.1 192.476 430C188.516 430 184.556 430 180.476 430C180.476 352.45 180.476 274.9 180.476 195Z" fill="#F1991D"/>
    <path fill-rule="evenodd" clip-rule="evenodd" d="M160.476 175V450H212.476V175H160.476ZM192.476 195H180.476V430H192.476V195Z" fill="#49454F"/>
    <path d="M600 195C603.96 195 607.92 195 612 195C612 272.55 612 350.1 612 430C608.04 430 604.08 430 600 430C600 352.45 600 274.9 600 195Z" fill="#F1991D"/>
    <path fill-rule="evenodd" clip-rule="evenodd" d="M580 175V450H632V175H580ZM612 195H600V430H612V195Z" fill="#49454F"/>
    <path d="M406.476 185.434C406.476 190.956 401.999 195.434 396.476 195.434C390.953 195.434 386.476 190.956 386.476 185.434C386.476 179.911 390.953 175.434 396.476 175.434C401.999 175.434 406.476 179.911 406.476 185.434Z" fill="#49454F"/>
    <path fill-rule="evenodd" clip-rule="evenodd" d="M395.976 356.434C401.499 356.434 405.976 360.911 405.976 366.434V403.434C405.976 408.956 401.499 413.434 395.976 413.434C390.453 413.434 385.976 408.956 385.976 403.434V366.434C385.976 360.911 390.453 356.434 395.976 356.434Z" fill="#49454F"/>
    <path fill-rule="evenodd" clip-rule="evenodd" d="M396.476 274.434C401.999 274.434 406.476 278.911 406.476 284.434V312.434C406.476 317.956 401.999 322.434 396.476 322.434C390.953 322.434 386.476 317.956 386.476 312.434V284.434C386.476 278.911 390.953 274.434 396.476 274.434Z" fill="#49454F"/>
    <path d="M290.064 125.054L275.896 87.647L349.775 59.6659L363.943 97.0729L290.064 125.054Z" fill="#CAC4D0"/>
    <path fill-rule="evenodd" clip-rule="evenodd" d="M519.282 87.647L505.114 125.054L431.235 97.0729L445.403 59.6659L519.282 87.647Z" fill="#49454F"/>
    <path d="M505.114 125.054L519.282 87.647L445.403 59.6659L431.235 97.0729L505.114 125.054Z" fill="#7A708F"/>
    <path fill-rule="evenodd" clip-rule="evenodd" d="M520.276 141.49L541.527 85.3791C543.483 80.2143 540.882 74.4416 535.717 72.4855L449.972 40.5446C451.928 35.3798 449.327 29.6071 444.162 27.651C438.997 25.6948 433.225 28.296 431.268 33.4608L397.589 122.385L363.91 33.4608C361.953 28.296 356.181 25.6948 351.016 27.651C345.851 29.6071 343.25 35.3798 345.206 40.5446L259.461 72.4855C254.296 74.4416 251.695 80.2143 253.651 85.3791L274.902 141.49C276.859 146.654 282.631 149.255 287.796 147.299L334.087 129.767L373.385 114.945L386.824 150.427C388.514 154.89 392.965 157.652 397.5 157C402.035 157.652 406.664 154.89 408.354 150.427L421.793 114.945L461.091 129.767L507.382 147.299C512.547 149.255 518.319 146.654 520.276 141.49ZM519.282 87.647L505.114 125.054L431.235 97.0729L445.403 59.6659L519.282 87.647ZM275.896 87.647L290.064 125.054L363.943 97.0729L349.775 59.6659L275.896 87.647Z" fill="#49454F"/>
    <path fill-rule="evenodd" clip-rule="evenodd" d="M154.976 441.934C154.976 436.411 159.453 431.934 164.976 431.934H628.476C633.999 431.934 638.476 436.411 638.476 441.934C638.476 447.456 633.999 451.934 628.476 451.934H164.976C159.453 451.934 154.976 447.456 154.976 441.934Z" fill="#49454F"/>
    <path fill-rule="evenodd" clip-rule="evenodd" d="M48 442C48 436.477 52.4772 432 58 432H132.5C138.023 432 142.5 436.477 142.5 442C142.5 447.523 138.023 452 132.5 452H58C52.4772 452 48 447.523 48 442Z" fill="#49454F"/>
    <path fill-rule="evenodd" clip-rule="evenodd" d="M652 442C652 436.477 656.477 432 662 432H736.5C742.023 432 746.5 436.477 746.5 442C746.5 447.523 742.023 452 736.5 452H662C656.477 452 652 447.523 652 442Z" fill="#49454F"/>
    <path fill-rule="evenodd" clip-rule="evenodd" d="M0 442C0 436.477 4.47715 432 10 432H36C41.5228 432 46 436.477 46 442C46 447.523 41.5228 452 36 452H10C4.47715 452 0 447.523 0 442Z" fill="#49454F"/>
    <path fill-rule="evenodd" clip-rule="evenodd" d="M749 442C749 436.477 753.477 432 759 432H785C790.523 432 795 436.477 795 442C795 447.523 790.523 452 785 452H759C753.477 452 749 447.523 749 442Z" fill="#49454F"/>
</svg>
